<svg width="14" height="14" viewBox="0 0 14 14" fill="none" xmlns="http://www.w3.org/2000/svg">
<path fill-rule="evenodd" clip-rule="evenodd" d="M7.95 9.05925C7.72075 9.916 7.7145 10.6305 7.9315 11.2028C8.33025 12.2548 9.7315 12.5575 9.7975 12.8333C9.8635 13.1093 7.9315 13.25 6.8395 13.25C5.74775 13.25 4.4085 13.0417 4.4085 12.8333C4.4085 12.625 5.6795 12.3485 6.06575 11.1833C6.29075 10.504 6.26625 9.72375 5.99175 8.843C5.92338 8.86438 5.85214 8.87517 5.7805 8.875C5.48275 8.875 5.23475 8.6925 5.18125 8.4515C4.97575 8.5865 4.71825 8.6665 4.439 8.6665C3.8365 8.6665 3.33625 8.2935 3.23725 7.803C3.15147 7.82322 3.06363 7.83338 2.9755 7.83325C2.43675 7.83325 2 7.46025 2 7C2 6.68925 2.199 6.41825 2.49425 6.275C2.3425 6.18025 2.244 6.027 2.244 5.85425C2.244 5.79425 2.25575 5.7365 2.27775 5.68275C2.1105 5.6085 2 5.48 2 5.33325C2 5.1515 2.1705 4.997 2.408 4.94C2.15925 4.7875 2 4.5535 2 4.29175C2 3.876 2.40075 3.53175 2.92475 3.4685C2.80118 3.31901 2.73301 3.13145 2.73175 2.9375C2.73175 2.41975 3.223 2 3.82925 2C3.89025 2 3.95025 2.00425 4.00875 2.0125C4.155 1.64175 4.5655 1.375 5.04875 1.375C5.183 1.375 5.3115 1.3955 5.4305 1.43325C5.513 1.04475 5.9115 0.75 6.39 0.75C6.8795 0.75 7.285 1.058 7.355 1.45925C7.53375 1.28025 7.8 1.16675 8.0975 1.16675C8.63625 1.16675 9.073 1.53975 9.073 2C9.073 2.155 9.02325 2.30025 8.937 2.42475C8.98125 2.4195 9.02675 2.41675 9.073 2.41675C9.5745 2.41675 9.988 2.74 10.0425 3.15625C10.1959 3.08017 10.365 3.04096 10.5363 3.04175C11.0752 3.04175 11.512 3.41475 11.512 3.875C11.512 4.18875 11.309 4.462 11.009 4.60425C11.309 4.74625 11.512 5.0195 11.512 5.33325C11.512 5.60575 11.3587 5.848 11.122 6C11.2135 6.1045 11.268 6.23425 11.268 6.375C11.268 6.429 11.26 6.48125 11.245 6.531C11.695 6.74425 11.9998 7.15425 11.9998 7.625C11.9998 8.31525 11.3448 8.875 10.5363 8.875C10.3346 8.8756 10.1346 8.83969 9.94575 8.769C9.72425 8.963 9.415 9.08325 9.073 9.08325C8.81139 9.08529 8.55479 9.01148 8.33425 8.87075C8.22925 8.96 8.0975 9.026 7.95 9.05925Z" fill="#625D52"/>
</svg>
