<svg width="14" height="14" viewBox="0 0 14 14" fill="none" xmlns="http://www.w3.org/2000/svg">
<path d="M11.2333 8.69926C10.7088 9.01809 10.1064 9.18577 9.49262 9.18379C8.97839 9.17972 8.46999 9.07455 7.99637 8.87426C7.63133 9.38959 7.43597 10.0059 7.43746 10.6374V12.2501C7.43759 12.3101 7.42539 12.3695 7.40161 12.4245C7.37784 12.4796 7.34299 12.5292 7.29925 12.5702C7.2555 12.6112 7.20379 12.6428 7.14731 12.663C7.09084 12.6832 7.03082 12.6916 6.97097 12.6876C6.85852 12.6778 6.75393 12.6259 6.67816 12.5422C6.6024 12.4585 6.56107 12.3493 6.56246 12.2364V11.5561L4.45043 9.4441C4.13647 9.56123 3.80442 9.62249 3.46933 9.62511C3.00802 9.62631 2.55534 9.50008 2.16121 9.26035C0.969569 8.53629 0.328084 6.86996 0.452225 4.80113C0.458475 4.6941 0.50381 4.59309 0.579622 4.51728C0.655433 4.44147 0.756443 4.39613 0.863475 4.38988C2.9323 4.26793 4.59863 4.90722 5.32051 6.09886C5.60412 6.56594 5.72794 7.11267 5.67324 7.65636C5.66984 7.69849 5.65431 7.73873 5.62853 7.77221C5.60274 7.8057 5.56781 7.831 5.52796 7.84506C5.4881 7.85912 5.44503 7.86133 5.40394 7.85142C5.36286 7.84152 5.32552 7.81993 5.29644 7.78926L4.24644 6.69004C4.16373 6.61145 4.05359 6.56829 3.93951 6.56975C3.82542 6.57121 3.71642 6.61718 3.63575 6.69786C3.55507 6.77853 3.5091 6.88753 3.50764 7.00161C3.50618 7.1157 3.54934 7.22584 3.62793 7.30855L6.57449 10.33C6.57777 10.2874 6.5816 10.2447 6.58598 10.2026C6.68165 9.39146 7.03958 8.63374 7.60535 8.04465L10.372 5.12105C10.4541 5.03903 10.5002 4.92776 10.5003 4.81171C10.5003 4.69567 10.4543 4.58436 10.3723 4.50226C10.2902 4.42017 10.179 4.37402 10.0629 4.37397C9.94688 4.37392 9.83557 4.41997 9.75348 4.50199L7.07379 7.3359C7.04697 7.36431 7.01302 7.38502 6.97549 7.39587C6.93795 7.40672 6.89819 7.40732 6.86035 7.39761C6.8225 7.3879 6.78795 7.36823 6.76028 7.34064C6.73261 7.31305 6.71283 7.27856 6.70301 7.24074C6.44379 6.2848 6.55808 5.33324 7.05301 4.51621C8.02973 2.90402 10.3025 2.04105 13.1332 2.2073C13.2402 2.21355 13.3412 2.25889 13.417 2.3347C13.4928 2.41051 13.5382 2.51152 13.5444 2.61855C13.7085 5.44972 12.8455 7.72254 11.2333 8.69926Z" fill="#625D52"/>
</svg>
