<svg width="14" height="14" viewBox="0 0 14 14" fill="none" xmlns="http://www.w3.org/2000/svg">
<path d="M6.41675 12.25V9.765C6.14258 9.86417 5.85091 9.91667 5.54175 9.91667C4.08341 9.91667 2.91675 8.75 2.91675 7.29167C2.91675 6.55083 3.20841 5.88583 3.71008 5.4075C3.57591 5.0925 3.50008 4.7425 3.50008 4.375C3.50008 2.91667 4.66675 1.75 6.12508 1.75C7.03508 1.75 7.84008 2.21667 8.31258 2.91667H8.45841C8.87974 2.91667 9.29694 2.99965 9.68619 3.16089C10.0754 3.32212 10.4291 3.55844 10.727 3.85637C11.025 4.15429 11.2613 4.50797 11.4225 4.89722C11.5838 5.28648 11.6667 5.70368 11.6667 6.125C11.6667 6.54632 11.5838 6.96352 11.4225 7.35278C11.2613 7.74203 11.025 8.09571 10.727 8.39363C10.4291 8.69156 10.0754 8.92788 9.68619 9.08911C9.29694 9.25035 8.87974 9.33333 8.45841 9.33333C8.16675 9.33333 7.87508 9.2925 7.58341 9.21083V12.25H6.41675Z" fill="#625D52"/>
</svg>
